<mxfile host="app.diagrams.net" modified="2021-06-03T09:56:57.929Z" agent="5.0 (Windows NT 10.0; Win64; x64) AppleWebKit/537.36 (KHTML, like Gecko) Chrome/90.0.4430.212 Safari/537.36" etag="wv_FuWuwf-tiXivxP11O" version="14.7.4" type="github">
  <diagram id="DRk5xCEyPXGiM2EW_BMv" name="Page-1">
    <mxGraphModel dx="1422" dy="1894" grid="1" gridSize="10" guides="1" tooltips="1" connect="1" arrows="1" fold="1" page="1" pageScale="1" pageWidth="850" pageHeight="1100" math="0" shadow="0">
      <root>
        <mxCell id="0" />
        <mxCell id="1" parent="0" />
        <mxCell id="dGhKGEyHy4dt6LcUNYCe-1" value="" style="rounded=0;whiteSpace=wrap;html=1;" vertex="1" parent="1">
          <mxGeometry x="170" y="200" width="470" height="60" as="geometry" />
        </mxCell>
        <mxCell id="dGhKGEyHy4dt6LcUNYCe-2" value="School Website Frontend&lt;br&gt;" style="text;html=1;resizable=0;autosize=1;align=center;verticalAlign=middle;points=[];fillColor=none;strokeColor=none;rounded=0;" vertex="1" parent="1">
          <mxGeometry x="320" y="220" width="150" height="20" as="geometry" />
        </mxCell>
        <mxCell id="dGhKGEyHy4dt6LcUNYCe-68" value="" style="edgeStyle=orthogonalEdgeStyle;rounded=0;orthogonalLoop=1;jettySize=auto;html=1;" edge="1" parent="1" source="dGhKGEyHy4dt6LcUNYCe-19" target="dGhKGEyHy4dt6LcUNYCe-67">
          <mxGeometry relative="1" as="geometry" />
        </mxCell>
        <mxCell id="dGhKGEyHy4dt6LcUNYCe-19" value="" style="rounded=0;whiteSpace=wrap;html=1;" vertex="1" parent="1">
          <mxGeometry x="222.5" y="105" width="97.5" height="30" as="geometry" />
        </mxCell>
        <mxCell id="dGhKGEyHy4dt6LcUNYCe-64" value="" style="edgeStyle=orthogonalEdgeStyle;rounded=0;orthogonalLoop=1;jettySize=auto;html=1;entryX=0.532;entryY=-0.033;entryDx=0;entryDy=0;entryPerimeter=0;" edge="1" parent="1" source="dGhKGEyHy4dt6LcUNYCe-21" target="dGhKGEyHy4dt6LcUNYCe-1">
          <mxGeometry relative="1" as="geometry">
            <mxPoint x="420" y="190" as="targetPoint" />
          </mxGeometry>
        </mxCell>
        <mxCell id="dGhKGEyHy4dt6LcUNYCe-70" value="" style="edgeStyle=orthogonalEdgeStyle;rounded=0;orthogonalLoop=1;jettySize=auto;html=1;" edge="1" parent="1" source="dGhKGEyHy4dt6LcUNYCe-21" target="dGhKGEyHy4dt6LcUNYCe-69">
          <mxGeometry relative="1" as="geometry" />
        </mxCell>
        <mxCell id="dGhKGEyHy4dt6LcUNYCe-21" value="" style="rounded=0;whiteSpace=wrap;html=1;" vertex="1" parent="1">
          <mxGeometry x="350" y="100" width="140" height="30" as="geometry" />
        </mxCell>
        <mxCell id="dGhKGEyHy4dt6LcUNYCe-53" value="" style="edgeStyle=orthogonalEdgeStyle;rounded=0;orthogonalLoop=1;jettySize=auto;html=1;entryX=0.045;entryY=0.983;entryDx=0;entryDy=0;entryPerimeter=0;" edge="1" parent="1" source="dGhKGEyHy4dt6LcUNYCe-22" target="dGhKGEyHy4dt6LcUNYCe-1">
          <mxGeometry relative="1" as="geometry">
            <mxPoint x="350" y="270" as="targetPoint" />
            <Array as="points">
              <mxPoint x="193" y="263" />
              <mxPoint x="191" y="263" />
            </Array>
          </mxGeometry>
        </mxCell>
        <mxCell id="dGhKGEyHy4dt6LcUNYCe-72" value="" style="edgeStyle=orthogonalEdgeStyle;rounded=0;orthogonalLoop=1;jettySize=auto;html=1;" edge="1" parent="1" source="dGhKGEyHy4dt6LcUNYCe-22" target="dGhKGEyHy4dt6LcUNYCe-71">
          <mxGeometry relative="1" as="geometry" />
        </mxCell>
        <mxCell id="dGhKGEyHy4dt6LcUNYCe-22" value="Academics" style="rounded=0;whiteSpace=wrap;html=1;" vertex="1" parent="1">
          <mxGeometry x="162.5" y="315" width="60" height="30" as="geometry" />
        </mxCell>
        <mxCell id="dGhKGEyHy4dt6LcUNYCe-56" value="" style="edgeStyle=orthogonalEdgeStyle;rounded=0;orthogonalLoop=1;jettySize=auto;html=1;" edge="1" parent="1" source="dGhKGEyHy4dt6LcUNYCe-23">
          <mxGeometry relative="1" as="geometry">
            <mxPoint x="350" y="260" as="targetPoint" />
            <Array as="points">
              <mxPoint x="350" y="260" />
            </Array>
          </mxGeometry>
        </mxCell>
        <mxCell id="dGhKGEyHy4dt6LcUNYCe-77" value="" style="edgeStyle=orthogonalEdgeStyle;rounded=0;orthogonalLoop=1;jettySize=auto;html=1;" edge="1" parent="1" source="dGhKGEyHy4dt6LcUNYCe-23" target="dGhKGEyHy4dt6LcUNYCe-76">
          <mxGeometry relative="1" as="geometry" />
        </mxCell>
        <mxCell id="dGhKGEyHy4dt6LcUNYCe-23" value="School Info" style="rounded=0;whiteSpace=wrap;html=1;" vertex="1" parent="1">
          <mxGeometry x="310" y="315" width="92.5" height="30" as="geometry" />
        </mxCell>
        <mxCell id="dGhKGEyHy4dt6LcUNYCe-57" value="" style="edgeStyle=orthogonalEdgeStyle;rounded=0;orthogonalLoop=1;jettySize=auto;html=1;" edge="1" parent="1" source="dGhKGEyHy4dt6LcUNYCe-24">
          <mxGeometry relative="1" as="geometry">
            <mxPoint x="447" y="262" as="targetPoint" />
            <Array as="points">
              <mxPoint x="447" y="300" />
              <mxPoint x="447" y="300" />
            </Array>
          </mxGeometry>
        </mxCell>
        <mxCell id="dGhKGEyHy4dt6LcUNYCe-79" value="" style="edgeStyle=orthogonalEdgeStyle;rounded=0;orthogonalLoop=1;jettySize=auto;html=1;" edge="1" parent="1" source="dGhKGEyHy4dt6LcUNYCe-24" target="dGhKGEyHy4dt6LcUNYCe-78">
          <mxGeometry relative="1" as="geometry" />
        </mxCell>
        <mxCell id="dGhKGEyHy4dt6LcUNYCe-24" value="Activities" style="rounded=0;whiteSpace=wrap;html=1;" vertex="1" parent="1">
          <mxGeometry x="420" y="315" width="60" height="30" as="geometry" />
        </mxCell>
        <mxCell id="dGhKGEyHy4dt6LcUNYCe-58" value="" style="edgeStyle=orthogonalEdgeStyle;rounded=0;orthogonalLoop=1;jettySize=auto;html=1;entryX=0.766;entryY=1;entryDx=0;entryDy=0;entryPerimeter=0;" edge="1" parent="1" source="dGhKGEyHy4dt6LcUNYCe-25" target="dGhKGEyHy4dt6LcUNYCe-1">
          <mxGeometry relative="1" as="geometry">
            <mxPoint x="530" y="270" as="targetPoint" />
          </mxGeometry>
        </mxCell>
        <mxCell id="dGhKGEyHy4dt6LcUNYCe-81" value="" style="edgeStyle=orthogonalEdgeStyle;rounded=0;orthogonalLoop=1;jettySize=auto;html=1;" edge="1" parent="1" source="dGhKGEyHy4dt6LcUNYCe-25" target="dGhKGEyHy4dt6LcUNYCe-80">
          <mxGeometry relative="1" as="geometry" />
        </mxCell>
        <mxCell id="dGhKGEyHy4dt6LcUNYCe-25" value="Facilities" style="rounded=0;whiteSpace=wrap;html=1;" vertex="1" parent="1">
          <mxGeometry x="500" y="315" width="60" height="30" as="geometry" />
        </mxCell>
        <mxCell id="dGhKGEyHy4dt6LcUNYCe-66" value="" style="edgeStyle=orthogonalEdgeStyle;rounded=0;orthogonalLoop=1;jettySize=auto;html=1;" edge="1" parent="1" source="dGhKGEyHy4dt6LcUNYCe-27" target="dGhKGEyHy4dt6LcUNYCe-65">
          <mxGeometry relative="1" as="geometry" />
        </mxCell>
        <mxCell id="dGhKGEyHy4dt6LcUNYCe-27" value="" style="rounded=0;whiteSpace=wrap;html=1;" vertex="1" parent="1">
          <mxGeometry x="150" y="110" width="60" height="30" as="geometry" />
        </mxCell>
        <mxCell id="dGhKGEyHy4dt6LcUNYCe-61" style="edgeStyle=orthogonalEdgeStyle;rounded=0;orthogonalLoop=1;jettySize=auto;html=1;entryX=0.026;entryY=0.017;entryDx=0;entryDy=0;entryPerimeter=0;" edge="1" parent="1" source="dGhKGEyHy4dt6LcUNYCe-36" target="dGhKGEyHy4dt6LcUNYCe-1">
          <mxGeometry relative="1" as="geometry">
            <Array as="points">
              <mxPoint x="182" y="160" />
              <mxPoint x="182" y="160" />
            </Array>
          </mxGeometry>
        </mxCell>
        <mxCell id="dGhKGEyHy4dt6LcUNYCe-36" value="Home" style="text;html=1;resizable=0;autosize=1;align=center;verticalAlign=middle;points=[];fillColor=none;strokeColor=none;rounded=0;" vertex="1" parent="1">
          <mxGeometry x="155" y="115" width="50" height="20" as="geometry" />
        </mxCell>
        <mxCell id="dGhKGEyHy4dt6LcUNYCe-62" value="" style="edgeStyle=orthogonalEdgeStyle;rounded=0;orthogonalLoop=1;jettySize=auto;html=1;" edge="1" parent="1" source="dGhKGEyHy4dt6LcUNYCe-45" target="dGhKGEyHy4dt6LcUNYCe-1">
          <mxGeometry relative="1" as="geometry">
            <Array as="points">
              <mxPoint x="270" y="190" />
              <mxPoint x="270" y="190" />
            </Array>
          </mxGeometry>
        </mxCell>
        <mxCell id="dGhKGEyHy4dt6LcUNYCe-45" value="The School" style="text;html=1;resizable=0;autosize=1;align=center;verticalAlign=middle;points=[];fillColor=none;strokeColor=none;rounded=0;" vertex="1" parent="1">
          <mxGeometry x="230" y="110" width="80" height="20" as="geometry" />
        </mxCell>
        <mxCell id="dGhKGEyHy4dt6LcUNYCe-46" value="Rules and Regulations" style="text;html=1;resizable=0;autosize=1;align=center;verticalAlign=middle;points=[];fillColor=none;strokeColor=none;rounded=0;" vertex="1" parent="1">
          <mxGeometry x="350" y="105" width="140" height="20" as="geometry" />
        </mxCell>
        <mxCell id="dGhKGEyHy4dt6LcUNYCe-55" value="" style="edgeStyle=orthogonalEdgeStyle;rounded=0;orthogonalLoop=1;jettySize=auto;html=1;entryX=0.213;entryY=1.05;entryDx=0;entryDy=0;entryPerimeter=0;" edge="1" parent="1" source="dGhKGEyHy4dt6LcUNYCe-54" target="dGhKGEyHy4dt6LcUNYCe-1">
          <mxGeometry relative="1" as="geometry">
            <mxPoint x="271" y="280" as="targetPoint" />
            <Array as="points">
              <mxPoint x="270" y="300" />
              <mxPoint x="270" y="300" />
            </Array>
          </mxGeometry>
        </mxCell>
        <mxCell id="dGhKGEyHy4dt6LcUNYCe-75" value="" style="edgeStyle=orthogonalEdgeStyle;rounded=0;orthogonalLoop=1;jettySize=auto;html=1;" edge="1" parent="1" source="dGhKGEyHy4dt6LcUNYCe-54" target="dGhKGEyHy4dt6LcUNYCe-74">
          <mxGeometry relative="1" as="geometry" />
        </mxCell>
        <mxCell id="dGhKGEyHy4dt6LcUNYCe-54" value="Admission" style="rounded=0;whiteSpace=wrap;html=1;" vertex="1" parent="1">
          <mxGeometry x="241.25" y="315" width="60" height="30" as="geometry" />
        </mxCell>
        <mxCell id="dGhKGEyHy4dt6LcUNYCe-65" value="Slider&lt;br&gt;About Section&lt;br&gt;Latest News&lt;br&gt;Time Table&lt;br&gt;&lt;br&gt;" style="rounded=0;whiteSpace=wrap;html=1;" vertex="1" parent="1">
          <mxGeometry x="20" y="330" width="100" height="90" as="geometry" />
        </mxCell>
        <mxCell id="dGhKGEyHy4dt6LcUNYCe-67" value="About Us&lt;br&gt;Message from Chairman&lt;br&gt;Message from Principal&lt;br&gt;Geographical Location&lt;br&gt;Philosophy and Objectives&lt;br&gt;School Uniform&lt;br&gt;History&lt;br&gt;Medium Of Instruction" style="whiteSpace=wrap;html=1;rounded=0;" vertex="1" parent="1">
          <mxGeometry x="211.25" y="-80" width="198.75" height="120" as="geometry" />
        </mxCell>
        <mxCell id="dGhKGEyHy4dt6LcUNYCe-69" value="Visits&lt;br&gt;School Rules&lt;br&gt;Leave Regulations&lt;br&gt;Serious Offences" style="whiteSpace=wrap;html=1;rounded=0;" vertex="1" parent="1">
          <mxGeometry x="560" y="-20" width="270" height="125" as="geometry" />
        </mxCell>
        <mxCell id="dGhKGEyHy4dt6LcUNYCe-71" value="Affiliation&lt;br&gt;Examinations&lt;br&gt;Withdrawals&lt;br&gt;Remedial&lt;br&gt;Awards" style="whiteSpace=wrap;html=1;rounded=0;" vertex="1" parent="1">
          <mxGeometry x="31.25" y="480" width="210" height="80" as="geometry" />
        </mxCell>
        <mxCell id="dGhKGEyHy4dt6LcUNYCe-74" value="Registration and Admission&lt;br&gt;Admission to Class +1&lt;br&gt;Test For Students&lt;br&gt;Fees&lt;br&gt;Payment Of School Fees" style="whiteSpace=wrap;html=1;rounded=0;" vertex="1" parent="1">
          <mxGeometry x="70" y="800" width="189.37" height="80" as="geometry" />
        </mxCell>
        <mxCell id="dGhKGEyHy4dt6LcUNYCe-76" value="Information&lt;br&gt;Managing Society&lt;br&gt;Status Of Affiliation&lt;br&gt;Area of The School&lt;br&gt;Fee Structure&lt;br&gt;Transport Facility&lt;br&gt;Teaching Staff&lt;br&gt;Detail Of Salary&lt;br&gt;Payment Of Salary&lt;br&gt;Library Facility&lt;br&gt;Section-Wise Enrollment" style="whiteSpace=wrap;html=1;rounded=0;" vertex="1" parent="1">
          <mxGeometry x="211.25" y="590" width="268.75" height="170" as="geometry" />
        </mxCell>
        <mxCell id="dGhKGEyHy4dt6LcUNYCe-78" value="School Activities&lt;br&gt;Art Education&lt;br&gt;Physical &amp;amp; Health Education&lt;br&gt;Parents Teacher Meeting" style="whiteSpace=wrap;html=1;rounded=0;" vertex="1" parent="1">
          <mxGeometry x="370" y="390" width="160" height="100" as="geometry" />
        </mxCell>
        <mxCell id="dGhKGEyHy4dt6LcUNYCe-80" value="Library&lt;br&gt;Medical Care&lt;br&gt;Computer Education&lt;br&gt;Abacus&lt;br&gt;Kindergarten&lt;br&gt;Music/Dance&lt;br&gt;Coming Soon Swimming&lt;br&gt;Skating&lt;br&gt;Guests&lt;br&gt;Canteen" style="whiteSpace=wrap;html=1;rounded=0;" vertex="1" parent="1">
          <mxGeometry x="570" y="360" width="260" height="170" as="geometry" />
        </mxCell>
      </root>
    </mxGraphModel>
  </diagram>
</mxfile>
